<?xml version="1.0" encoding="utf-8"?>
<!-- Generator: Adobe Illustrator 27.8.1, SVG Export Plug-In . SVG Version: 6.00 Build 0)  -->
<svg version="1.1" id="Layer_2_00000023994061461855718610000012592701045869598372_"
	 xmlns="http://www.w3.org/2000/svg" xmlns:xlink="http://www.w3.org/1999/xlink" x="0px" y="0px" viewBox="0 0 512 512"
	 style="enable-background:new 0 0 512 512;" xml:space="preserve">
<style type="text/css">
	.st0{fill:#FFFFFF;}
</style>
<g>
	<path class="st0" d="M165.1,498c-31.4,0-56.9-25.5-56.9-56.9v-11h32.2l25-68.6h72.7l21.2-62.1h119.2v-47.6h41v-30.4h-41v-50.2
		H186.3V151c31.3-2.9,55.9-29.3,55.9-61.3V0H117.6v89.7c0,32,24.6,58.4,55.9,61.3v20.2H58.2v21.3H0v88.4h58.2v18.5h37.9L51.9,430.1
		h43.5v11c0,38.4,31.3,69.7,69.7,69.7h347V498H165.1z M229.3,12.8V62h-98.9V12.8H229.3z M130.4,89.7V74.8h98.9v14.9
		c0,26.9-21.9,48.8-48.8,48.8h-1.3C152.3,138.4,130.4,116.6,130.4,89.7z M229,348.7h-59l18-49.3h57.8L229,348.7z M406.8,234.1v4.8
		h-28.2v-4.8H406.8z M365.7,221.3v30.4v34.8h-56.9V183.9h56.9V221.3z M12.8,268.1v-62.8h45.4v62.8H12.8z M71,280.9v-88.4V184h225
		v102.7H71V280.9z M109.6,299.4h64.8l-43,117.9H69.8L109.6,299.4z"/>
</g>
<g>
	
		<rect x="462.7" y="170.2" transform="matrix(0.9485 -0.3169 0.3169 0.9485 -31.0084 162.5723)" class="st0" width="43.2" height="12.8"/>
</g>
<g>
	
		<rect x="426.9" y="185" transform="matrix(0.9487 -0.3162 0.3162 0.9487 -37.9194 149.0632)" class="st0" width="26.9" height="12.8"/>
</g>
<g>
	
		<rect x="478" y="273.6" transform="matrix(0.3079 -0.9514 0.9514 0.3079 54.245 665.3324)" class="st0" width="12.8" height="43.5"/>
</g>
<g>
	
		<rect x="433.7" y="267.4" transform="matrix(0.3085 -0.9512 0.9512 0.3085 37.0003 612.9938)" class="st0" width="12.8" height="27.2"/>
</g>
<g>
	<rect x="470.3" y="229.7" class="st0" width="41.7" height="12.8"/>
</g>
<g>
	<rect x="431.7" y="229.7" class="st0" width="27.3" height="12.8"/>
</g>
</svg>
